<?xml version="1.0" encoding="utf-8"?>
<svg viewBox="0 0 24 24" xmlns="http://www.w3.org/2000/svg">
  <title>card-account-details-outline</title>
  <title>message-reply</title>
  <title>clock-outline</title>
  <path d="M 11.324 19.998 C 15.743 19.998 19.324 16.416 19.324 11.998 C 19.324 7.58 15.743 3.998 11.324 3.998 C 6.906 3.998 3.324 7.58 3.324 11.998 C 3.324 16.416 6.906 19.998 11.324 19.998 M 11.324 1.998 C 16.847 1.998 21.324 6.475 21.324 11.998 C 21.324 17.521 16.847 21.998 11.324 21.998 C 5.794 21.998 1.324 17.498 1.324 11.998 C 1.324 6.475 5.802 1.998 11.324 1.998 M 11.824 6.998 L 11.824 12.248 L 16.324 14.918 L 15.574 16.148 L 10.324 12.998 L 10.324 6.998 L 11.824 6.998 Z" style="fill: rgb(255, 255, 255);"/>
</svg>