<?xml version="1.0" encoding="utf-8"?>
<svg viewBox="0 0 24 24" xmlns="http://www.w3.org/2000/svg">
  <title>account-group</title>
  <title>cog</title>
  <path d="M 12.236 15.503 C 10.303 15.503 8.736 13.936 8.736 12.003 C 8.736 10.07 10.303 8.503 12.236 8.503 C 14.169 8.503 15.736 10.07 15.736 12.003 C 15.736 13.936 14.169 15.503 12.236 15.503 M 19.666 12.973 C 19.706 12.653 19.736 12.333 19.736 12.003 C 19.736 11.673 19.706 11.343 19.666 11.003 L 21.776 9.373 C 21.966 9.223 22.016 8.953 21.896 8.733 L 19.896 5.273 C 19.776 5.053 19.506 4.963 19.286 5.053 L 16.796 6.053 C 16.276 5.663 15.736 5.323 15.106 5.073 L 14.736 2.423 C 14.696 2.183 14.486 2.003 14.236 2.003 L 10.236 2.003 C 9.986 2.003 9.776 2.183 9.736 2.423 L 9.366 5.073 C 8.736 5.323 8.196 5.663 7.676 6.053 L 5.186 5.053 C 4.966 4.963 4.696 5.053 4.576 5.273 L 2.576 8.733 C 2.446 8.953 2.506 9.223 2.696 9.373 L 4.806 11.003 C 4.766 11.343 4.736 11.673 4.736 12.003 C 4.736 12.333 4.766 12.653 4.806 12.973 L 2.696 14.633 C 2.506 14.783 2.446 15.053 2.576 15.273 L 4.576 18.733 C 4.696 18.953 4.966 19.033 5.186 18.953 L 7.676 17.943 C 8.196 18.343 8.736 18.683 9.366 18.933 L 9.736 21.583 C 9.776 21.823 9.986 22.003 10.236 22.003 L 14.236 22.003 C 14.486 22.003 14.696 21.823 14.736 21.583 L 15.106 18.933 C 15.736 18.673 16.276 18.343 16.796 17.943 L 19.286 18.953 C 19.506 19.033 19.776 18.953 19.896 18.733 L 21.896 15.273 C 22.016 15.053 21.966 14.783 21.776 14.633 L 19.666 12.973 Z" style="fill: rgb(255, 255, 255);"/>
</svg>