<?xml version="1.0" encoding="utf-8"?>
<svg viewBox="0 0 24 24" xmlns="http://www.w3.org/2000/svg">
  <title>share-variant-outline</title>
  <path d="M 18 16.08 C 17.24 16.08 16.56 16.38 16.04 16.85 L 8.91 12.7 C 8.96 12.47 9 12.24 9 12 C 9 11.76 8.96 11.53 8.91 11.3 L 15.96 7.19 C 16.5 7.69 17.21 8 18 8 C 19.66 8 21 6.66 21 5 C 21 3.34 19.66 2 18 2 C 16.34 2 15 3.34 15 5 C 15 5.24 15.04 5.47 15.09 5.7 L 8.04 9.81 C 7.5 9.31 6.79 9 6 9 C 4.34 9 3 10.34 3 12 C 3 13.66 4.34 15 6 15 C 6.79 15 7.5 14.69 8.04 14.19 L 15.16 18.34 C 15.11 18.55 15.08 18.77 15.08 19 C 15.08 20.61 16.39 21.91 18 21.91 C 19.61 21.91 20.92 20.61 20.92 19 C 20.92 17.39 19.61 16.08 18 16.08 M 18 4 C 18.55 4 19 4.45 19 5 C 19 5.55 18.55 6 18 6 C 17.45 6 17 5.55 17 5 C 17 4.45 17.45 4 18 4 M 6 13 C 5.45 13 5 12.55 5 12 C 5 11.45 5.45 11 6 11 C 6.55 11 7 11.45 7 12 C 7 12.55 6.55 13 6 13 M 18 20 C 17.45 20 17 19.55 17 19 C 17 18.45 17.45 18 18 18 C 18.55 18 19 18.45 19 19 C 19 19.55 18.55 20 18 20 Z" transform="matrix(0, -1, 1, 0, 0.045, 23.955)"/>
</svg>